# xmcd
#
# Track frame offsets: 
#        150
#        28328
#        45140
#        61020
#        78673
#        104310
#        128305
#        144585
#        165425
#        183645
#
# Disc length: 2667 seconds
#
# Revision: 2
# Processed by: cddbd v1.5.2PL0 Copyright (c) Steve Scherf et al.
# Submitted via: ExactAudioCopy v1.0b3
#
DISCID=770a690a
DTITLE=中島みゆき - おかえりなさい
DYEAR=1979
DGENRE=Folk
TTITLE0=あばよ
TTITLE1=髪
TTITLE2=サヨナラを伝えて
TTITLE3=しあわせ芝居
TTITLE4=雨…
TTITLE5=この空を飛べたら
TTITLE6=世迷い言
TTITLE7=ルージュ
TTITLE8=追いかけてヨコハマ
TTITLE9=強がりはよせヨ
EXTD=YEAR: 1979
EXTT0=
EXTT1=
EXTT2=
EXTT3=
EXTT4=
EXTT5=
EXTT6=
EXTT7=
EXTT8=
EXTT9=
PLAYORDER=
